# xmcd
#
# Track frame offsets:
#	150
#	10415
#	25778
#	41158
#	57226
#	74512
#	88225
#	112755
#	126158
#	138980
#	154868
#	165691
#	186173
#	201867
#	214489
#
# Disc length: 3015 seconds
#
# Revision: 2
# Processed by: cddbd v1.5.2PL0 Copyright (c) Steve Scherf et al.
# Submitted via: audiograbber 1.83.01
#
DISCID=db0bc50f
DTITLE=Various Artist - House Of Blues - Christmas Collection
DYEAR=1998
DGENRE=Christmas
TTITLE0=Mabel Scott - Boogie Woogie Santa Claus
TTITLE1=Eddie C. Campbell - Santa's Messin' with the Kid
TTITLE2=Louis Jordan - Santa Claus, Santa Claus
TTITLE3=Albert King - Santa Claus Wants Some Lovin'
TTITLE4=Lightnin' Hopkins - Santa
TTITLE5=Floyd Dixon - Empty Stocking Blues
TTITLE6=Earl King - Santa, Don't Let Me Down
TTITLE7=Amos Milburn - Let's Make Christmas Merry, Baby
TTITLE8=B.B. King - Christmas Celebration
TTITLE9=Eddie C. Campbell - Blues for Christmas
TTITLE10=Lowell Fulson - I Wanna Spend Christmas With You
TTITLE11=Anson Funderburgh - Sam's Christmas Blues
TTITLE12=Bessie Smith - At the Christmas Ball
TTITLE13=J. Witherspoon - How I Hate to See Christmas Come Around
TTITLE14=Sonny Boy Williamson - Sonny Boy's Christmas Blues
EXTD=
EXTT0=
EXTT1=
EXTT2=
EXTT3=
EXTT4=
EXTT5=
EXTT6=
EXTT7=
EXTT8=
EXTT9=
EXTT10=
EXTT11=
EXTT12=
EXTT13=
EXTT14=
PLAYORDER=
